<?xml version="1.0" encoding="UTF-8"?>
<svg width="114px" height="93px" viewBox="0 0 114 93" version="1.1" xmlns="http://www.w3.org/2000/svg" xmlns:xlink="http://www.w3.org/1999/xlink">
    <title>Group 5</title>
    <g id="06-Tomato-Trolley-10052022" stroke="none" stroke-width="1" fill="none" fill-rule="evenodd">
        <g id="002_TomatoTrolley_Screen02-Copy-14" transform="translate(-341.000000, -1224.000000)" stroke="#000000" stroke-width="4">
            <g id="Group-7" transform="translate(80.000000, 1197.000000)">
                <g id="Group-5" transform="translate(252.490808, 20.198769)">
                    <polyline id="Path-5" stroke-linecap="round" points="108.594672 27.4010537 112.757317 26.7698303 119.594672 23.4010537"></polyline>
                    <polyline id="Path-5-Copy-6" stroke-linecap="round" transform="translate(104.094672, 13.401054) scale(-1, 1) rotate(-120.000000) translate(-104.094672, -13.401054) " points="98.5946721 15.4010537 102.757317 14.7698303 109.594672 11.4010537"></polyline>
                    <path d="M64.6363708,-3.58743456 L64.6684225,-3.58743456 C68.9531506,-3.58744363 72.6438145,-0.566758985 73.491319,3.63331619 C76.3098797,17.629566 76.9222353,27.2995603 75.3283858,32.643299 C70.3143663,49.4539259 48.6375352,66.0070027 50.4415864,73.32029 C68.0164796,144.565631 39.0995911,115.648742 36.6466676,71.3250172 C36.0493372,60.5314029 55.4346575,47.8113744 57.9885457,37.3826651 C59.8504546,29.7796278 59.9368473,18.5067766 58.2477239,3.56411142 C57.8488393,0.0357431765 60.3858198,-3.14789818 63.9141921,-3.54674647 C64.1539641,-3.57385037 64.3950718,-3.58743456 64.6363708,-3.58743456 Z" id="Rectangle" transform="translate(56.412565, 56.412565) rotate(45.000000) translate(-56.412565, -56.412565) "></path>
                </g>
            </g>
        </g>
    </g>
</svg>