<?xml version="1.0" encoding="UTF-8"?>
<svg width="73px" height="82px" viewBox="0 0 73 82" version="1.1" xmlns="http://www.w3.org/2000/svg" xmlns:xlink="http://www.w3.org/1999/xlink">
    <title>Group</title>
    <g id="06-Tomato-Trolley-10052022" stroke="none" stroke-width="1" fill="none" fill-rule="evenodd">
        <g id="002_TomatoTrolley_Screen02-Copy-14" transform="translate(-556.000000, -1224.000000)" stroke="#000000" stroke-width="4">
            <g id="Group-7" transform="translate(80.000000, 1197.000000)">
                <g id="Group" transform="translate(475.107267, 25.143852)">
                    <path d="M38.2420393,-5.98096802 C42.7932295,-5.98096802 46.4826982,-2.29149936 46.4826982,2.25969089 C46.4826982,2.50153931 46.4720515,2.7432705 46.450789,2.98418245 L41.2542192,61.8631851 C41.0723095,63.9242864 39.4474727,65.563141 37.38801,65.7627486 C35.4897292,65.9467342 33.8017188,64.5570233 33.6177332,62.6587425 C33.6140703,62.6209501 33.6110309,62.5830999 33.6086163,62.5452072 L29.8143702,3.00081562 C29.5177811,-1.65365748 33.0505442,-5.6672864 37.7050172,-5.96387548 C37.883798,-5.97526762 38.062896,-5.98096802 38.2420393,-5.98096802 Z" id="Rectangle" transform="translate(38.242039, 30.063045) rotate(50.000000) translate(-38.242039, -30.063045) "></path>
                    <path d="M23.6269006,38.7686541 C26.8467238,38.7686541 29.4569063,41.3788366 29.4569063,44.5986599 C29.4569063,44.76976 29.4493741,44.9407772 29.4343315,45.1112148 L25.7579226,86.7662483 C25.6292273,88.2244124 24.4797066,89.3838502 23.0227018,89.5250663 C21.6797282,89.6552303 20.4855141,88.6720537 20.3553502,87.3290801 C20.3527588,87.3023431 20.3506085,87.2755653 20.3489003,87.2487574 L17.6645911,45.1229822 C17.4547637,41.8300896 19.9540818,38.990574 23.2469745,38.7807466 C23.3734562,38.772687 23.5001623,38.7686541 23.6269006,38.7686541 Z" id="Rectangle-Copy" transform="translate(23.626901, 64.268654) rotate(50.000000) translate(-23.626901, -64.268654) "></path>
                    <path d="M50.6269006,38.7686541 C53.8467238,38.7686541 56.4569063,41.3788366 56.4569063,44.5986599 C56.4569063,44.76976 56.4493741,44.9407772 56.4343315,45.1112148 L52.7579226,86.7662483 C52.6292273,88.2244124 51.4797066,89.3838502 50.0227018,89.5250663 C48.6797282,89.6552303 47.4855141,88.6720537 47.3553502,87.3290801 C47.3527588,87.3023431 47.3506085,87.2755653 47.3489003,87.2487574 L44.6645911,45.1229822 C44.4547637,41.8300896 46.9540818,38.990574 50.2469745,38.7807466 C50.3734562,38.772687 50.5001623,38.7686541 50.6269006,38.7686541 Z" id="Rectangle-Copy-2" transform="translate(50.626901, 64.268654) rotate(50.000000) translate(-50.626901, -64.268654) "></path>
                </g>
            </g>
        </g>
    </g>
</svg>