<?xml version="1.0" encoding="UTF-8"?>
<svg width="72px" height="83px" viewBox="0 0 72 83" version="1.1" xmlns="http://www.w3.org/2000/svg" xmlns:xlink="http://www.w3.org/1999/xlink">
    <title>Group 6</title>
    <g id="06-Tomato-Trolley-10052022" stroke="none" stroke-width="1" fill="none" fill-rule="evenodd">
        <g id="002_TomatoTrolley_Screen02-Copy-14" transform="translate(-351.000000, -1447.000000)" stroke="#000000" stroke-width="4">
            <g id="Group-7" transform="translate(80.000000, 1197.000000)">
                <g id="Group-6" transform="translate(273.588529, 252.000000)">
                    <path d="M34.1481411,0 L34.1690427,0 C38.1824619,-7.37253152e-16 41.6763709,2.74229886 42.6299426,6.64079021 L42.7085373,6.96210917 C43.7998277,11.4236362 43.0931847,16.1353584 40.7411051,20.0804642 L37.6033259,25.3434115 C36.7369437,26.7965805 35.2089084,27.728225 33.5203067,27.8328319 C31.8780513,27.9345676 30.3288329,27.0635849 29.5623266,25.6076243 L26.7808855,20.3243425 C24.6174859,16.2150158 24.1131947,11.4322695 25.371976,6.96210917 L25.4850654,6.56050847 C26.5776981,2.68037186 30.1170982,7.40490558e-16 34.1481411,0 Z" id="Rectangle" transform="translate(33.911471, 14.000000) scale(1, -1) translate(-33.911471, -14.000000) "></path>
                    <path d="M34.1481411,50 L34.1690427,50 C38.1824619,50 41.6763709,52.7422989 42.6299426,56.6407902 L42.7085373,56.9621092 C43.7998277,61.4236362 43.0931847,66.1353584 40.7411051,70.0804642 L37.6033259,75.3434115 C36.7369437,76.7965805 35.2089084,77.728225 33.5203067,77.8328319 C31.8780513,77.9345676 30.3288329,77.0635849 29.5623266,75.6076243 L26.7808855,70.3243425 C24.6174859,66.2150158 24.1131947,61.4322695 25.371976,56.9621092 L25.4850654,56.5605085 C26.5776981,52.6803719 30.1170982,50 34.1481411,50 Z" id="Rectangle-Copy-3" transform="translate(33.911471, 64.000000) scale(1, -1) translate(-33.911471, -64.000000) "></path>
                    <path d="M44.3629768,4.84267793 L47.135954,4.84267793 C51.569793,4.84267793 55.3430804,8.07188904 56.027942,12.452516 L58.0302913,25.2602802 C58.8825829,30.7118509 58.6257065,36.2793676 57.275051,41.6292979 L50.3703943,68.9785606 C49.8517163,71.0330377 47.765762,72.278049 45.7112849,71.759371 C44.9309819,71.562374 44.2323825,71.124992 43.7143352,70.5091125 L40.2865919,66.4340472 C39.3699829,65.3443386 38.7250202,64.0526886 38.4047009,62.6652332 L33.5698834,41.7233377 C32.3205957,36.3120782 32.1836775,30.7034205 33.167436,25.2376481 L35.5053041,12.2484275 C36.2768505,7.96170723 40.0073764,4.84267793 44.3629768,4.84267793 Z" id="Rectangle" fill="#FFFFFF" transform="translate(45.499149, 40.542382) scale(1, -1) rotate(13.000000) translate(-45.499149, -40.542382) "></path>
                    <path d="M20.3629768,4.84267793 L23.135954,4.84267793 C27.569793,4.84267793 31.3430804,8.07188904 32.027942,12.452516 L34.0302913,25.2602802 C34.8825829,30.7118509 34.6257065,36.2793676 33.275051,41.6292979 L26.3703943,68.9785606 C25.8517163,71.0330377 23.765762,72.278049 21.7112849,71.759371 C20.9309819,71.562374 20.2323825,71.124992 19.7143352,70.5091125 L16.2865919,66.4340472 C15.3699829,65.3443386 14.7250202,64.0526886 14.4047009,62.6652332 L9.56988336,41.7233377 C8.32059567,36.3120782 8.18367755,30.7034205 9.16743596,25.2376481 L11.5053041,12.2484275 C12.2768505,7.96170723 16.0073764,4.84267793 20.3629768,4.84267793 Z" id="Rectangle" fill="#FFFFFF" transform="translate(21.499149, 40.542382) scale(-1, -1) rotate(13.000000) translate(-21.499149, -40.542382) "></path>
                </g>
            </g>
        </g>
    </g>
</svg>