<?xml version="1.0" encoding="UTF-8"?>
<svg width="64px" height="76px" viewBox="0 0 64 76" version="1.1" xmlns="http://www.w3.org/2000/svg" xmlns:xlink="http://www.w3.org/1999/xlink">
    <title>Group 11</title>
    <g id="06-Tomato-Trolley-10052022" stroke="none" stroke-width="1" fill="none" fill-rule="evenodd">
        <g id="002_TomatoTrolley_Screen02-Copy-17" transform="translate(-568.000000, -1225.000000)">
            <g id="Group-6" transform="translate(80.000000, 1197.000000)">
                <g id="Group-11" transform="translate(488.000000, 30.000000)">
                    <path d="M48.7596793,14.7346213 C57.9040032,20.3675047 64,30.4718542 64,42 C64,59.673112 49.673112,74 32,74 C14.326888,74 0,59.673112 0,42 C0,30.4718542 6.09599679,20.3675047 15.2403207,14.7346213 L18,17.4626165 L17.9473512,17.7764337 C9.60717475,22.6252146 4,31.6577944 4,42 C4,57.463973 16.536027,70 32,70 C47.463973,70 60,57.463973 60,42 C60,31.6582089 54.3932748,22.6259387 46.0536518,17.7770168 L46,17.4626165 Z" id="Combined-Shape" fill="#000000" fill-rule="nonzero"></path>
                    <path d="M31.6520806,18.1291144 L23.7715101,21.0536281 C23.2537297,21.2457787 22.6782168,20.9818035 22.4860663,20.464023 C22.4167018,20.2771094 22.4047912,20.0737285 22.4518638,19.879996 L23.7533635,14.5235309 C23.8513051,14.1204416 23.6902184,13.698736 23.3484816,13.4635988 L18.0719189,9.83297941 C17.6169332,9.51991957 17.5018796,8.89729565 17.8149394,8.44230995 C17.9811566,8.20073804 18.2450267,8.04429423 18.5367285,8.01437417 L26.5485509,7.19259586 C26.8376481,7.16294295 27.0995452,7.00899251 27.2660681,6.77081905 L31.1804474,1.17218466 C31.4969088,0.719558261 32.1203776,0.609174678 32.573004,0.925636029 C32.6689907,0.992746783 32.7524418,1.0761979 32.8195526,1.17218466 L36.7339319,6.77081905 C36.9004548,7.00899251 37.1623519,7.16294295 37.4514491,7.19259586 L45.4632715,8.01437417 C46.0126737,8.07072675 46.4123695,8.56178806 46.3560169,9.11119031 C46.3260968,9.40289213 46.169653,9.66676218 45.9280811,9.83297941 L40.6515184,13.4635988 C40.3097816,13.698736 40.1486949,14.1204416 40.2466365,14.5235309 L41.5481362,19.879996 C41.6785348,20.416666 41.3491868,20.9574319 40.8125169,21.0878305 C40.6187844,21.1349032 40.4154035,21.1229925 40.2284899,21.0536281 L32.3479194,18.1291144 C32.1234522,18.0458137 31.8765478,18.0458137 31.6520806,18.1291144 Z" id="Star" stroke="#000000" stroke-width="4"></path>
                </g>
            </g>
        </g>
    </g>
</svg>