<?xml version="1.0" encoding="UTF-8"?>
<svg width="66px" height="66px" viewBox="0 0 66 66" version="1.1" xmlns="http://www.w3.org/2000/svg" xmlns:xlink="http://www.w3.org/1999/xlink">
    <title>Group 3</title>
    <g id="06-Tomato-Trolley-10052022" stroke="none" stroke-width="1" fill="none" fill-rule="evenodd">
        <g id="002_TomatoTrolley_Screen02-Copy-16" transform="translate(-354.000000, -1236.000000)" fill="#000000" fill-rule="nonzero">
            <g id="Group-6" transform="translate(80.000000, 1197.000000)">
                <g id="Group-3" transform="translate(257.000000, 22.000000)">
                    <path d="M49.9983202,3.85102807 L48.2893248,5.45269787 L47.5875659,6.1412427 C43.4601994,10.2515734 38.919336,15.5341122 34.9101163,21.5409271 C28.8797675,30.5758996 25.3510281,39.4083373 25.3510281,47.6448295 C25.3510281,51.2287393 26.0300114,55.0746299 27.3134501,59.1473745 C29.2891316,65.416818 32.6305058,72.0488987 36.9533294,78.8104134 C39.4611933,82.7330711 42.1453003,86.4580722 44.8300106,89.8682892 L45.2946304,90.4552328 L46.1882652,91.5655812 C46.3330447,91.7434417 46.4756764,91.9176578 46.6160588,92.0881603 L47.4305452,93.0660643 L48.3459469,94.1336525 L49.8742622,95.8510281 L51.552369,94.0569739 L52.3588194,93.1566796 L52.757889,92.7010183 L53.597507,91.7234221 C53.7418497,91.5532456 53.8883279,91.3794872 54.0368407,91.2022069 L54.9515208,90.0967418 C57.6268409,86.8241446 60.3013051,83.2191178 62.8000935,79.3835343 C68.1542932,71.1649595 71.9654014,63.0384802 73.552072,55.3558054 C74.0786838,52.8059464 74.3510281,50.3319129 74.3510281,47.9421226 C74.3510281,44.2145438 73.4283668,40.1340213 71.7060218,35.7500388 C69.6819245,30.5979888 66.6100704,25.1582041 62.770974,19.5962202 C60.2752568,15.9804894 57.6047417,12.5284465 54.933841,9.35389888 L54.0211806,8.28031551 L53.1573898,7.28546427 L52.1530519,6.15668803 L51.347841,5.27944887 L49.9983202,3.85102807 Z M49.6709819,9.61538525 L49.8317165,9.45256833 L50.1894852,9.85883601 C50.4596302,10.1666182 50.7387005,10.4879149 51.0258802,10.8221758 L51.9109303,11.8633011 C54.5063791,14.9481689 57.1022134,18.3036757 59.5217557,21.8090462 C63.2040587,27.1438717 66.1352667,32.3345939 68.0360071,37.1726564 C69.5933101,41.1365482 70.411459,44.7548587 70.411459,47.9421226 C70.411459,50.0568865 70.1679259,52.2691924 69.6928716,54.5694104 C68.2200296,61.7009254 64.6035306,69.4124367 59.4926362,77.2575435 C57.076165,80.9667718 54.4842798,84.4604868 51.8932505,87.6299748 L51.4459538,88.1738381 C51.1515423,88.5296277 50.8648393,88.8717628 50.5866607,89.199748 L49.9427582,89.9467408 L49.2500425,89.103109 L48.3840919,88.0271174 C48.2357561,87.8407631 48.0854833,87.6509444 47.933376,87.4577321 C45.3233973,84.1424421 42.7128152,80.5194787 40.2789692,76.7125955 C36.1262567,70.2171589 32.9319448,63.8769729 31.0731326,57.9783914 C29.9016824,54.2610206 29.2905972,50.7997181 29.2905972,47.6448295 C29.2905972,40.3191029 32.5520066,32.1557922 38.193613,23.7032533 C41.8134252,18.2798682 45.9057989,13.4477586 49.6709819,9.61538525 Z" id="Oval-1-Copy-45-Copy-2" transform="translate(49.851028, 49.851028) rotate(45.000000) translate(-49.851028, -49.851028) "></path>
                    <path d="M49.6439213,7.55813485 C50.6794552,7.55813485 51.5311754,8.33967046 51.6335955,9.34118084 L51.6439213,9.54424952 L51.6439213,90.5720202 C51.6439213,91.668921 50.7484908,92.5581349 49.6439213,92.5581349 C48.6083873,92.5581349 47.756667,91.7765992 47.6542469,90.7750888 L47.6439213,90.5720202 L47.6439213,9.54424952 C47.6439213,8.44734868 48.5393517,7.55813485 49.6439213,7.55813485 Z" id="Path-3-Copy-2" transform="translate(49.643921, 50.058135) rotate(45.000000) translate(-49.643921, -50.058135) "></path>
                </g>
            </g>
        </g>
    </g>
</svg>