<?xml version="1.0" encoding="UTF-8"?>
<svg width="121px" height="96px" viewBox="0 0 121 96" version="1.1" xmlns="http://www.w3.org/2000/svg" xmlns:xlink="http://www.w3.org/1999/xlink">
    <title>Group 11</title>
    <g id="06-Tomato-Trolley-10052022" stroke="none" stroke-width="1" fill="none" fill-rule="evenodd">
        <g id="002_TomatoTrolley_Screen02-Copy-16" transform="translate(-117.000000, -1231.000000)" stroke="#000000">
            <g id="Group-6" transform="translate(80.000000, 1197.000000)">
                <g id="Group-11" transform="translate(23.471047, 17.173103)">
                    <path d="M73.9253575,18.845929 C78.5605311,18.845929 82.3180818,22.6034797 82.3180818,27.2386533 C82.3180818,27.4339513 82.3112649,27.6291897 82.2976437,27.8240121 L76.8733712,105.406452 C76.7284274,107.479558 75.1341132,109.158912 73.0713282,109.411292 C71.2445192,109.634801 69.5824083,108.335069 69.3588994,106.50826 C69.3492789,106.429629 69.3424653,106.350679 69.3384716,106.271562 L65.3790862,27.8344845 C65.140829,23.1145092 68.7739793,19.0950676 73.4939546,18.8568104 C73.6376412,18.8495573 73.7814879,18.845929 73.9253575,18.845929 Z" id="Rectangle" stroke-width="4" transform="translate(73.925357, 64.345929) rotate(180.000000) translate(-73.925357, -64.345929) "></path>
                    <g id="Group-3-Copy-2" transform="translate(41.028953, 63.028953) scale(-1, 1) rotate(15.000000) translate(-41.028953, -63.028953) translate(7.528953, 29.528953)" fill="#000000" fill-rule="nonzero">
                        <path d="M33.5989806,2.5878993 L32.450532,3.66422491 L31.9789484,4.12692854 C29.2053491,6.88907979 26.153879,10.4389574 23.4596746,14.4755502 C19.407267,20.5470715 17.0359464,26.4824889 17.0359464,32.0174297 C17.0359464,34.425825 17.4922246,37.0102719 18.3546982,39.7471651 C19.6823605,43.9602449 21.9277713,48.4170177 24.8327183,52.9607703 C26.5180083,55.5968049 28.321734,58.1000138 30.1258652,60.3916871 L30.4380908,60.7861145 L31.0386153,61.532271 C31.1359075,61.6517937 31.2317563,61.7688672 31.3260936,61.8834453 L31.8734302,62.540599 L32.4885822,63.2580206 L33.5156134,64.4121007 L34.6433048,63.2064923 L35.1852412,62.6014926 L35.4534169,62.2952873 L36.017642,61.6383405 C36.1146406,61.5239815 36.2130743,61.4072154 36.3128752,61.2880827 L36.9275423,60.5452077 C38.7253633,58.3460153 40.5226091,55.9234293 42.2018003,53.3459088 C45.7998342,47.8230086 48.3609073,42.3619967 49.4271534,37.1992224 C49.7810377,35.4857116 49.9640536,33.8231557 49.9640536,32.2172113 C49.9640536,29.7122702 49.3440233,26.9701502 48.1866036,24.0241043 C46.8264058,20.5619155 44.7621131,16.9063683 42.182232,13.1687029 C40.5051045,10.7389239 38.7105125,8.41914346 36.9156614,6.28584052 L36.3023516,5.56439015 L35.7218823,4.89584794 L35.046965,4.13730783 L34.5058615,3.5478012 L33.5989806,2.5878993 Z M33.3790086,6.46155994 L33.4870226,6.35214661 L33.7274439,6.62515938 C33.908982,6.8319897 34.0965178,7.04790176 34.2895032,7.27252582 L34.8842588,7.97216429 C36.6284061,10.0452022 38.3728124,12.3001101 39.9987501,14.6557268 C42.4732658,18.2407412 44.443044,21.7289179 45.7203457,24.9801065 C46.7668567,27.6438504 47.3166546,30.075363 47.3166546,32.2172113 C47.3166546,33.6383373 47.1529998,35.1250117 46.8337623,36.6707632 C45.8440092,41.4631569 43.413714,46.6453094 39.9791817,51.9172384 C38.3553078,54.4098479 36.6135553,56.757632 34.8723779,58.8875349 L34.5717936,59.2530122 C34.3739484,59.4921037 34.1812834,59.7220191 33.9943467,59.9424259 L33.5616429,60.4444067 L33.0961364,59.8774843 L32.5142157,59.1544156 C32.4145337,59.0291851 32.3135501,58.9016265 32.2113336,58.7717875 C30.4574222,56.5439053 28.7031053,54.1092659 27.0675555,51.5510321 C24.2769236,47.1860845 22.130339,42.9254656 20.8812131,38.961606 C20.0939961,36.4635246 19.6833454,34.1375218 19.6833454,32.0174297 C19.6833454,27.0945254 21.8750197,21.6087627 25.6661915,15.9286381 C28.0987133,12.2841115 30.8487974,9.03692323 33.3790086,6.46155994 Z" id="Oval-1-Copy-45-Copy-2" transform="translate(33.500000, 33.500000) rotate(45.000000) translate(-33.500000, -33.500000) "></path>
                        <path d="M33.3608238,5.07908317 C34.0567048,5.07908317 34.6290627,5.6042768 34.6978892,6.27729398 L34.7048282,6.41375657 L34.7048282,60.8645959 C34.7048282,61.6017156 34.1030969,62.1992693 33.3608238,62.1992693 C32.6649427,62.1992693 32.0925848,61.6740756 32.0237583,61.0010584 L32.0168194,60.8645959 L32.0168194,6.41375657 C32.0168194,5.67663681 32.6185506,5.07908317 33.3608238,5.07908317 Z" id="Path-3-Copy-2" transform="translate(33.360824, 33.639176) rotate(45.000000) translate(-33.360824, -33.639176) "></path>
                    </g>
                    <g id="Group-3-Copy-3" transform="translate(107.028953, 41.028953) rotate(15.000000) translate(-107.028953, -41.028953) translate(73.528953, 7.528953)" fill="#000000" fill-rule="nonzero">
                        <path d="M33.5989806,2.5878993 L32.450532,3.66422491 L31.9789484,4.12692854 C29.2053491,6.88907979 26.153879,10.4389574 23.4596746,14.4755502 C19.407267,20.5470715 17.0359464,26.4824889 17.0359464,32.0174297 C17.0359464,34.425825 17.4922246,37.0102719 18.3546982,39.7471651 C19.6823605,43.9602449 21.9277713,48.4170177 24.8327183,52.9607703 C26.5180083,55.5968049 28.321734,58.1000138 30.1258652,60.3916871 L30.4380908,60.7861145 L31.0386153,61.532271 C31.1359075,61.6517937 31.2317563,61.7688672 31.3260936,61.8834453 L31.8734302,62.540599 L32.4885822,63.2580206 L33.5156134,64.4121007 L34.6433048,63.2064923 L35.1852412,62.6014926 L35.4534169,62.2952873 L36.017642,61.6383405 C36.1146406,61.5239815 36.2130743,61.4072154 36.3128752,61.2880827 L36.9275423,60.5452077 C38.7253633,58.3460153 40.5226091,55.9234293 42.2018003,53.3459088 C45.7998342,47.8230086 48.3609073,42.3619967 49.4271534,37.1992224 C49.7810377,35.4857116 49.9640536,33.8231557 49.9640536,32.2172113 C49.9640536,29.7122702 49.3440233,26.9701502 48.1866036,24.0241043 C46.8264058,20.5619155 44.7621131,16.9063683 42.182232,13.1687029 C40.5051045,10.7389239 38.7105125,8.41914346 36.9156614,6.28584052 L36.3023516,5.56439015 L35.7218823,4.89584794 L35.046965,4.13730783 L34.5058615,3.5478012 L33.5989806,2.5878993 Z M33.3790086,6.46155994 L33.4870226,6.35214661 L33.7274439,6.62515938 C33.908982,6.8319897 34.0965178,7.04790176 34.2895032,7.27252582 L34.8842588,7.97216429 C36.6284061,10.0452022 38.3728124,12.3001101 39.9987501,14.6557268 C42.4732658,18.2407412 44.443044,21.7289179 45.7203457,24.9801065 C46.7668567,27.6438504 47.3166546,30.075363 47.3166546,32.2172113 C47.3166546,33.6383373 47.1529998,35.1250117 46.8337623,36.6707632 C45.8440092,41.4631569 43.413714,46.6453094 39.9791817,51.9172384 C38.3553078,54.4098479 36.6135553,56.757632 34.8723779,58.8875349 L34.5717936,59.2530122 C34.3739484,59.4921037 34.1812834,59.7220191 33.9943467,59.9424259 L33.5616429,60.4444067 L33.0961364,59.8774843 L32.5142157,59.1544156 C32.4145337,59.0291851 32.3135501,58.9016265 32.2113336,58.7717875 C30.4574222,56.5439053 28.7031053,54.1092659 27.0675555,51.5510321 C24.2769236,47.1860845 22.130339,42.9254656 20.8812131,38.961606 C20.0939961,36.4635246 19.6833454,34.1375218 19.6833454,32.0174297 C19.6833454,27.0945254 21.8750197,21.6087627 25.6661915,15.9286381 C28.0987133,12.2841115 30.8487974,9.03692323 33.3790086,6.46155994 Z" id="Oval-1-Copy-45-Copy-2" transform="translate(33.500000, 33.500000) rotate(45.000000) translate(-33.500000, -33.500000) "></path>
                        <path d="M33.3608238,5.07908317 C34.0567048,5.07908317 34.6290627,5.6042768 34.6978892,6.27729398 L34.7048282,6.41375657 L34.7048282,60.8645959 C34.7048282,61.6017156 34.1030969,62.1992693 33.3608238,62.1992693 C32.6649427,62.1992693 32.0925848,61.6740756 32.0237583,61.0010584 L32.0168194,60.8645959 L32.0168194,6.41375657 C32.0168194,5.67663681 32.6185506,5.07908317 33.3608238,5.07908317 Z" id="Path-3-Copy-2" transform="translate(33.360824, 33.639176) rotate(45.000000) translate(-33.360824, -33.639176) "></path>
                    </g>
                </g>
            </g>
        </g>
    </g>
</svg>