<?xml version="1.0" encoding="UTF-8"?>
<svg width="74px" height="70px" viewBox="0 0 74 70" version="1.1" xmlns="http://www.w3.org/2000/svg" xmlns:xlink="http://www.w3.org/1999/xlink">
    <title>Group 5</title>
    <g id="06-Tomato-Trolley-10052022" stroke="none" stroke-width="1" fill="none" fill-rule="evenodd">
        <g id="002_TomatoTrolley_Screen02-Copy-24" transform="translate(-142.000000, -1236.000000)" fill="#000000" fill-rule="nonzero">
            <g id="Group-16" transform="translate(81.000000, 1199.000000)">
                <g id="Group-5" transform="translate(61.481481, 37.000000)">
                    <path d="M35.5,9 C21.949006,9 11,20.3750027 11,34.364599 C11,36.3643057 11.1895647,38.4274105 11.5462378,40.5059902 L11.738396,41.5463476 C12.9736521,47.7935679 15.6791981,54.108178 19.2487109,59.196257 L19.8515252,60.0326917 L20.4697153,60.8450814 C24.7451266,66.3112268 30.0537785,70 35.5,70 C40.9462216,70 46.2548735,66.3112268 50.5302847,60.8450814 L51.1484749,60.0326917 L51.7512892,59.196257 C55.320802,54.108178 58.026348,47.7935679 59.2616041,41.5463476 L59.4537623,40.5059902 C59.8104354,38.4274105 60,36.3643057 60,34.364599 C60,20.3750027 49.0509941,9 35.5,9 Z M35.5,12.7854391 C46.904381,12.7854391 56.1857034,22.427873 56.1857034,34.364599 C56.1857034,38.3457038 55.3221197,42.6353527 53.8566728,46.7369308 L53.4935438,47.7174444 C49.6869733,57.6441172 42.4218053,66.2145609 35.5,66.2145609 C28.5781948,66.2145609 21.3130267,57.6441172 17.5064562,47.7174444 L17.1433273,46.7369308 C15.6778804,42.6353527 14.8142966,38.3457038 14.8142966,34.364599 C14.8142966,22.427873 24.0956191,12.7854391 35.5,12.7854391 Z" id="Oval-3-Copy-Copy"></path>
                    <path d="M35.4421637,0 C43.1471201,0 49.7598966,6.74357987 49.9936102,14.5719559 L50,15 L46.2061967,15 C46.2061967,9.41111194 41.2514611,4.25100605 35.4421637,4.25100605 C29.5707326,4.25100605 24.0294529,9.3983268 23.8011146,14.6637943 L23.7938033,15 L20,15 C20,7.10189624 27.4766815,0 35.4421637,0 Z" id="Path-Copy-2"></path>
                    <path d="M0.427341134,31.5401694 L5.92278765,24 L12.3111712,24.6619589 C13.332665,24.7678053 14.0852953,25.7952983 13.9922181,26.956929 C13.9049582,28.0459578 13.105379,28.8662625 12.1640875,28.8773318 L11.9741088,28.8685958 L7.53333373,28.406528 L3.28723822,34.2356548 C2.67633211,35.0738643 1.61568975,35.238315 0.834899033,34.6513423 L0.672136065,34.5140328 C-0.0649534565,33.8193175 -0.209565162,32.6131675 0.306596334,31.7252614 L0.427341134,31.5401694 Z" id="Path-Copy-3"></path>
                    <path d="M0.117124408,37.3296416 C0.452500909,36.339278 1.41324342,35.8048156 2.32408592,36.0658089 L2.50538901,36.1287143 L12.0542156,40.0339435 L13.9637977,50.5596368 C14.1643428,51.6650499 13.5114916,52.7398254 12.5056136,52.9602154 C11.562603,53.1668307 10.6440953,52.5491702 10.3677213,51.5603233 L10.3211913,51.3577389 L8.81608277,43.0646554 L1.20991621,39.9542332 C0.30872823,39.58567 -0.177609302,38.5298587 0.0598832751,37.5288853 L0.117124408,37.3296416 Z" id="Path-3-Copy-3-Copy" transform="translate(7.000000, 44.500000) scale(-1, 1) translate(-7.000000, -44.500000) "></path>
                    <path d="M14.5674825,47.6792071 C15.2699578,46.8624594 16.5023025,46.7691607 17.3200017,47.4708187 C18.0831875,48.1256996 18.2154348,49.2416185 17.6585374,50.0515432 L17.5286329,50.2201355 L9.4860784,59.5695356 L12.5172436,67.3425965 C12.8838571,68.2832941 12.4696374,69.3353118 11.5886799,69.7849834 L11.4063583,69.8666751 C10.4645651,70.2328621 9.4113219,69.8191243 8.9611265,68.9391917 L8.87933975,68.7570822 L5,58.8030432 L14.5674825,47.6792071 Z" id="Path-3-Copy-4-Copy"></path>
                    <path d="M57.878912,24.6423671 L65.6516717,24 L72.4407765,31.4294821 C73.2159507,32.2777738 73.1809283,33.616824 72.362552,34.4203344 C71.5987341,35.1702773 70.4224872,35.1886498 69.6388037,34.4980739 L69.4771736,34.3392502 L64.0301635,28.378612 L58.2033391,28.8602403 C57.1499092,28.9472993 56.2196385,28.1890388 56.0336513,27.1342052 L56.0065616,26.9194468 C55.9225728,25.8275091 56.6540929,24.8632327 57.6717272,24.6704468 L57.878912,24.6423671 Z" id="Path-Copy-4"></path>
                    <path d="M56.1598786,37.2286356 C56.5571745,36.2593274 57.5793884,35.7819197 58.5098658,36.0959166 L58.6945257,36.1693569 L67.2785973,40.1172856 L68.9721578,50.6149461 C69.1514036,51.7260145 68.4464197,52.7806351 67.3975324,52.9705072 C66.4142003,53.1485123 65.4777043,52.5032903 65.2167894,51.50645 L65.1738004,51.3025334 L63.8308004,42.9823136 L57.1598749,39.9135439 C56.2448141,39.4926954 55.7941246,38.4098817 56.0905486,37.4242428 L56.1598786,37.2286356 Z" id="Path-3-Copy-3-Copy-2"></path>
                    <path d="M53.6567765,47.4831362 C54.4033827,46.8209316 55.512896,46.8477098 56.2272405,47.5127353 L56.3739896,47.6649914 L66,58.7910847 L62.168444,68.7570818 C61.7826697,69.7604927 60.6665613,70.2572746 59.6755459,69.866675 C58.7464692,69.5004879 58.257171,68.4843767 58.5175062,67.532008 L58.5796601,67.3425956 L61.5638041,59.580329 L53.4771677,50.2343363 C52.8231436,49.4783915 52.8495912,48.3550004 53.5064012,47.6317208 L53.6567765,47.4831362 Z" id="Path-3-Copy-4-Copy-2"></path>
                    <polygon id="Path-Copy-5" points="38 10 38 68 34 68 34 10"></polygon>
                </g>
            </g>
        </g>
    </g>
</svg>