<?xml version="1.0" encoding="UTF-8"?>
<svg width="77px" height="76px" viewBox="0 0 77 76" version="1.1" xmlns="http://www.w3.org/2000/svg" xmlns:xlink="http://www.w3.org/1999/xlink">
    <title>Group 2</title>
    <g id="06-Tomato-Trolley-10052022" stroke="none" stroke-width="1" fill="none" fill-rule="evenodd">
        <g id="002_TomatoTrolley_Screen02-Copy-24" transform="translate(-145.000000, -1459.000000)">
            <g id="Group-16" transform="translate(81.000000, 1199.000000)">
                <g id="Group-2" transform="translate(64.481481, 260.000000)">
                    <path d="M25.5195298,27.8585 C25.5063873,28.1685372 25.621806,28.4702494 25.838518,28.6923567 C26.05523,28.914464 26.3540133,29.0372658 26.6642798,29.03175 L30.5830298,29.03175 C31.2385298,29.03175 31.7610298,28.495 31.8465298,27.84425 C32.2740298,24.72825 34.4115298,22.45775 38.2210298,22.45775 C41.4795298,22.45775 44.4625298,24.087 44.4625298,28.00575 C44.4625298,31.022 42.6860298,32.409 39.8787798,34.518 C36.6820298,36.84075 34.1502798,39.553 34.3307798,43.95625 L34.3450298,44.987 C34.3554057,45.6354063 34.8840406,46.1555 35.5325298,46.1555 L39.3847798,46.1555 C40.040618,46.1555 40.5722798,45.6238381 40.5722798,44.968 L40.5722798,44.46925 C40.5722798,41.05875 41.8690298,40.066 45.3697798,37.41075 C48.2625298,35.2115 51.2787798,32.77 51.2787798,27.64475 C51.2787798,20.4675 45.2177798,17 38.5820298,17 C32.5637798,17 25.9707798,19.8025 25.5195298,27.8585 L25.5195298,27.8585 Z M32.9152798,55.23275 C32.9152798,57.7645 34.9340298,59.636 37.7127798,59.636 C40.6055298,59.636 42.5957798,57.7645 42.5957798,55.23275 C42.5957798,52.61075 40.6007798,50.76775 37.7080298,50.76775 C34.9340298,50.76775 32.9152798,52.61075 32.9152798,55.23275 Z" id="Shape" stroke="#FFFFFF" fill="#000000" fill-rule="nonzero"></path>
                    <g id="Group-8" stroke="#000000" stroke-width="4">
                        <circle id="Oval" cx="38" cy="38" r="36"></circle>
                    </g>
                </g>
            </g>
        </g>
    </g>
</svg>